<?xml version="1.0" standalone="no"?>
<!DOCTYPE svg PUBLIC "-//W3C//DTD SVG 20010904//EN"
 "http://www.w3.org/TR/2001/REC-SVG-20010904/DTD/svg10.dtd">
<svg version="1.0" xmlns="http://www.w3.org/2000/svg"
 width="330.000000pt" height="330.000000pt" viewBox="0 0 330.000000 330.000000"
 preserveAspectRatio="xMidYMid meet">

<g transform="translate(0.000000,330.000000) scale(0.100000,-0.100000)"
fill="#000000" stroke="none">
<path d="M2688 3217 c-23 -18 -23 -30 7 -227 27 -186 55 -440 55 -507 0 -37
-4 -45 -25 -55 -37 -17 -31 -36 13 -40 32 -3 37 -7 40 -31 5 -41 27 -27 26 16
-1 23 4 38 13 42 23 8 33 -3 33 -39 0 -17 4 -36 9 -41 6 -6 12 -35 14 -65 2
-39 4 -29 5 35 l2 91 30 11 c38 14 38 32 0 40 -20 4 -32 13 -34 27 -3 11 -26
181 -51 376 -26 195 -50 358 -54 362 -14 15 -66 18 -83 5z m57 -97 c-3 -5 -10
-10 -16 -10 -5 0 -9 5 -9 10 0 6 7 10 16 10 8 0 12 -4 9 -10z m15 -46 c0 -2
-9 -4 -21 -4 -11 0 -18 4 -14 10 5 8 35 3 35 -6z m-5 -44 c3 -5 -1 -10 -10
-10 -9 0 -13 5 -10 10 3 6 8 10 10 10 2 0 7 -4 10 -10z m5 -50 c0 -5 -4 -10
-10 -10 -5 0 -10 5 -10 10 0 6 5 10 10 10 6 0 10 -4 10 -10z m20 -44 c0 -2 -7
-6 -15 -10 -8 -3 -15 -1 -15 4 0 6 7 10 15 10 8 0 15 -2 15 -4z m0 -50 c0 -11
-19 -15 -25 -6 -3 5 1 10 9 10 9 0 16 -2 16 -4z m7 -52 c-3 -3 -12 -4 -19 -1
-8 3 -5 6 6 6 11 1 17 -2 13 -5z m3 -44 c0 -5 -7 -10 -16 -10 -8 0 -12 5 -9
10 3 6 10 10 16 10 5 0 9 -4 9 -10z m10 -50 c0 -5 -7 -10 -15 -10 -8 0 -15 5
-15 10 0 6 7 10 15 10 8 0 15 -4 15 -10z m10 -44 c0 -2 -7 -6 -15 -10 -8 -3
-15 -1 -15 4 0 6 7 10 15 10 8 0 15 -2 15 -4z m-3 -52 c-3 -3 -12 -4 -19 -1
-8 3 -5 6 6 6 11 1 17 -2 13 -5z m3 -44 c0 -5 -8 -10 -17 -10 -15 0 -16 2 -3
10 19 12 20 12 20 0z m10 -50 c0 -5 -7 -10 -16 -10 -8 0 -12 5 -9 10 3 6 10
10 16 10 5 0 9 -4 9 -10z m5 -50 c-3 -5 -10 -10 -16 -10 -5 0 -9 5 -9 10 0 6
7 10 16 10 8 0 12 -4 9 -10z m20 -40 c4 -6 -7 -10 -24 -10 -17 0 -31 5 -31 10
0 6 11 10 24 10 14 0 28 -4 31 -10z"/>
<path d="M489 3195 c-30 -16 -24 24 -64 -440 -14 -154 -25 -290 -25 -302 0
-16 -8 -23 -31 -28 -38 -9 -36 -39 4 -43 24 -3 27 -7 27 -42 0 -21 4 -41 9
-45 9 -5 16 21 24 85 1 8 10 16 20 18 14 3 17 -4 17 -37 0 -30 4 -41 15 -41 9
0 15 9 15 25 0 15 6 25 14 25 8 0 27 5 41 10 23 9 25 13 15 25 -7 8 -21 15
-33 15 -19 0 -19 4 -13 153 4 83 14 220 22 302 28 302 29 315 10 315 -9 0 -16
5 -16 10 0 14 -20 12 -51 -5z m36 -95 c-3 -5 -10 -10 -16 -10 -5 0 -9 5 -9 10
0 6 7 10 16 10 8 0 12 -4 9 -10z m-8 -46 c-3 -3 -12 -4 -19 -1 -8 3 -5 6 6 6
11 1 17 -2 13 -5z m0 -50 c-3 -3 -12 -4 -19 -1 -8 3 -5 6 6 6 11 1 17 -2 13
-5z m-2 -44 c3 -5 -3 -10 -15 -10 -12 0 -18 5 -15 10 3 6 10 10 15 10 5 0 12
-4 15 -10z m-15 -50 c0 -5 -4 -10 -10 -10 -5 0 -10 5 -10 10 0 6 5 10 10 10 6
0 10 -4 10 -10z m10 -44 c0 -2 -7 -6 -15 -10 -8 -3 -15 -1 -15 4 0 6 7 10 15
10 8 0 15 -2 15 -4z m-15 -46 c3 -5 -1 -10 -10 -10 -9 0 -13 5 -10 10 3 6 8
10 10 10 2 0 7 -4 10 -10z m0 -50 c3 -5 -1 -10 -9 -10 -9 0 -16 5 -16 10 0 6
4 10 9 10 6 0 13 -4 16 -10z m-5 -50 c0 -5 -4 -10 -9 -10 -6 0 -13 5 -16 10
-3 6 1 10 9 10 9 0 16 -4 16 -10z m0 -44 c0 -11 -19 -15 -25 -6 -3 5 1 10 9
10 9 0 16 -2 16 -4z m-5 -46 c3 -6 -4 -10 -17 -10 -18 0 -20 2 -8 10 19 12 18
12 25 0z m-10 -50 c3 -5 -1 -10 -10 -10 -9 0 -13 5 -10 10 3 6 8 10 10 10 2 0
7 -4 10 -10z m0 -50 c-3 -5 -10 -10 -16 -10 -5 0 -9 5 -9 10 0 6 7 10 16 10 8
0 12 -4 9 -10z m0 -50 c-3 -5 -12 -7 -20 -3 -21 7 -19 13 6 13 11 0 18 -4 14
-10z m-8 -48 c-34 -4 -48 5 -27 18 8 5 22 4 34 -3 20 -11 20 -12 -7 -15z"/>
<path d="M1470 2541 c-318 -67 -582 -300 -694 -610 -25 -69 -61 -240 -52 -248
11 -11 79 141 96 213 27 113 53 179 101 254 44 68 178 208 221 231 167 89 226
109 333 109 39 0 98 7 133 15 34 8 95 17 135 21 40 3 83 8 97 11 21 5 18 8
-20 14 -82 14 -261 8 -350 -10z"/>
<path d="M1601 2353 c-20 -45 -13 -70 29 -104 22 -18 40 -37 40 -43 0 -7 30
-12 79 -13 43 -2 96 -9 118 -17 22 -8 51 -12 64 -9 18 3 43 -8 90 -39 35 -24
81 -51 101 -60 36 -17 38 -17 48 1 14 28 -17 61 -86 93 -33 15 -67 29 -76 32
-10 3 -18 15 -18 26 0 14 -11 26 -32 36 l-33 15 33 -5 c17 -3 32 -1 32 4 0 5
-10 10 -22 12 -15 2 -24 13 -31 38 -5 19 -16 39 -25 45 -10 5 -81 10 -159 11
-140 1 -141 0 -152 -23z m249 -3 c13 -8 13 -13 0 -37 -31 -55 -143 -64 -169
-14 -17 31 4 46 76 52 37 3 70 6 73 7 3 1 12 -3 20 -8z"/>
<path d="M1245 2338 c-91 -32 -175 -136 -175 -216 0 -25 -7 -40 -26 -54 -33
-26 -24 -34 15 -13 28 14 34 14 60 0 32 -16 55 -12 86 16 11 9 31 19 44 21 17
2 28 13 35 35 6 17 33 54 59 83 27 28 47 57 44 64 -5 13 -95 77 -106 75 -3 0
-19 -5 -36 -11z m48 -53 c7 -16 -91 -135 -111 -135 -19 0 -30 41 -21 75 5 16
20 40 34 53 30 26 90 30 98 7z"/>
<path d="M2270 2346 c0 -4 12 -31 27 -60 40 -78 41 -80 48 -132 9 -56 18 -77
52 -118 28 -33 23 -45 -10 -27 -20 10 -30 10 -60 -3 -43 -18 -56 -51 -35 -93
8 -15 21 -41 29 -58 9 -16 20 -39 26 -50 24 -42 39 -111 29 -127 -7 -12 -5
-28 7 -55 9 -21 22 -58 28 -83 l12 -45 9 34 c5 19 8 45 5 57 -3 16 2 24 15 27
16 5 17 8 6 32 -11 24 -10 29 7 41 18 13 21 12 35 -16 14 -27 17 -29 31 -14
15 14 17 10 24 -48 l8 -63 8 50 c15 92 -10 202 -62 276 -10 14 -21 38 -25 53
-6 23 -2 32 22 51 l29 24 -30 58 c-16 32 -55 92 -87 133 -56 75 -148 171 -148
156z m140 -395 c16 -16 32 -41 36 -55 8 -32 -9 -76 -29 -76 -15 0 -89 138 -81
151 11 18 46 8 74 -20z m120 -241 c0 -10 -4 -22 -10 -25 -6 -4 -10 7 -10 25 0
18 4 29 10 25 6 -3 10 -15 10 -25z"/>
<path d="M405 2270 c3 -5 8 -10 11 -10 2 0 4 5 4 10 0 6 -5 10 -11 10 -5 0 -7
-4 -4 -10z"/>
<path d="M400 2240 c0 -5 5 -10 10 -10 6 0 10 5 10 10 0 6 -4 10 -10 10 -5 0
-10 -4 -10 -10z"/>
<path d="M1880 2001 c-32 -62 14 -101 71 -60 l30 21 -23 17 c-49 38 -66 43
-78 22z"/>
<path d="M1691 1970 c34 -42 45 -45 63 -17 16 24 -19 57 -61 57 l-34 0 32 -40z"/>
<path d="M1096 1959 c-33 -26 -34 -68 -2 -134 20 -42 21 -51 9 -63 -19 -20
-42 -66 -63 -129 -17 -52 -17 -54 1 -63 26 -15 28 -13 34 28 12 75 29 147 38
160 15 20 45 14 63 -13 9 -14 22 -24 28 -22 6 2 19 -5 30 -15 34 -31 78 -20
129 34 52 56 25 126 -59 147 -26 7 -72 30 -102 52 -30 21 -61 39 -67 39 -7 0
-24 -9 -39 -21z m102 -54 c15 -8 44 -21 65 -29 45 -18 47 -45 4 -60 -56 -20
-149 51 -122 93 9 15 22 14 53 -4z"/>
<path d="M1493 1953 c-3 -10 -12 -33 -19 -50 -16 -42 -4 -50 44 -30 21 8 45
18 55 21 26 8 21 23 -20 51 -45 30 -52 31 -60 8z"/>
<path d="M2010 1873 c-10 -13 -29 -45 -41 -71 -13 -26 -40 -67 -61 -91 -43
-49 -48 -82 -21 -130 13 -22 28 -32 55 -36 39 -7 68 -35 68 -67 0 -21 11 -23
27 -7 9 9 14 5 19 -17 4 -16 15 -39 26 -50 19 -22 19 -22 -13 -45 -31 -22 -32
-23 -11 -32 15 -7 26 -6 38 4 24 20 52 90 60 149 l7 50 -65 0 c-72 0 -82 4
-67 31 8 15 6 19 -8 19 -14 0 -14 3 5 16 13 9 29 17 35 18 49 9 112 46 77 46
-5 0 -9 31 -9 73 1 94 -10 119 -60 144 l-41 21 -20 -25z m55 -63 c14 -26 14
-33 -1 -69 -18 -45 -51 -71 -89 -71 -34 0 -41 23 -17 57 11 15 29 47 41 71 25
49 45 53 66 12z"/>
<path d="M1847 1797 c-2 -7 8 -27 24 -46 l28 -34 9 34 c5 19 7 40 4 47 -6 16
-58 16 -65 -1z"/>
<path d="M1562 1765 c-79 -41 -80 -42 -56 -60 33 -25 79 -19 99 13 10 15 24
31 32 35 17 10 17 47 1 46 -7 0 -41 -15 -76 -34z"/>
<path d="M911 1704 c-22 -28 -25 -55 -11 -89 7 -19 9 -18 19 8 6 16 11 34 11
40 0 7 7 24 14 40 12 22 13 27 1 27 -7 0 -23 -12 -34 -26z"/>
<path d="M1755 1689 c-10 -14 -1 -21 19 -13 9 3 13 10 10 15 -7 12 -21 11 -29
-2z"/>
<path d="M1446 1625 c4 -8 13 -15 21 -15 13 0 13 3 3 15 -7 8 -16 15 -21 15
-5 0 -6 -7 -3 -15z"/>
<path d="M1510 1563 c-11 -15 -18 -33 -15 -41 3 -8 8 -26 12 -40 3 -15 16 -42
29 -61 13 -19 31 -58 40 -87 9 -29 24 -59 33 -67 24 -21 87 -28 101 -12 8 9 8
14 0 17 -19 6 15 40 43 43 14 2 31 6 37 10 18 11 0 25 -26 19 -21 -5 -24 -3
-24 20 0 14 -8 45 -17 68 -51 132 -160 199 -213 131z m113 -31 c9 -8 22 -32
29 -53 9 -32 8 -42 -6 -64 -21 -32 -28 -27 -60 38 -14 28 -31 60 -38 70 -27
37 34 45 75 9z"/>
<path d="M1305 1560 c-3 -5 -1 -10 4 -10 6 0 11 5 11 10 0 6 -2 10 -4 10 -3 0
-8 -4 -11 -10z"/>
<path d="M1710 1543 c0 -16 67 -53 84 -47 24 9 19 17 -23 37 -40 18 -61 22
-61 10z"/>
<path d="M1028 1520 c-27 -16 -61 -80 -69 -129 -7 -45 -4 -67 22 -176 13 -57
55 -119 73 -108 6 4 16 8 21 8 6 0 9 12 7 27 -3 20 4 30 28 45 l32 18 -8 65
c-5 36 -7 97 -6 136 3 65 1 72 -24 97 -28 28 -48 33 -76 17z m54 -111 c3 -35
8 -71 10 -79 2 -9 -6 -16 -18 -18 -54 -8 -87 105 -43 149 31 31 43 19 51 -52z"/>
<path d="M807 1507 c-10 -27 -9 -89 5 -146 16 -72 32 -65 24 12 -11 110 -21
154 -29 134z"/>
<path d="M1332 1438 c3 -7 13 -15 24 -17 16 -3 17 -1 5 13 -16 19 -34 21 -29
4z"/>
<path d="M2260 1427 c0 -15 -7 -44 -15 -63 -15 -36 -15 -36 8 -30 12 3 25 6
30 6 13 0 7 76 -8 96 -14 18 -14 18 -15 -9z"/>
<path d="M1884 1429 c-3 -6 1 -18 10 -27 15 -15 16 -14 16 11 0 27 -13 36 -26
16z"/>
<path d="M2436 1331 c-10 -11 -16 -26 -14 -33 3 -8 11 -2 23 15 21 33 15 45
-9 18z"/>
<path d="M1799 1309 c-12 -22 -7 -28 60 -70 27 -18 35 -19 42 -8 16 26 9 37
-41 68 -49 30 -50 30 -61 10z"/>
<path d="M1361 1294 c-19 -8 -42 -14 -53 -14 -17 0 -16 -3 9 -37 15 -20 46
-49 67 -65 l39 -28 30 41 c28 39 30 43 16 66 -22 38 -68 54 -108 37z"/>
<path d="M1480 1291 c0 -5 5 -13 10 -16 6 -3 10 -2 10 4 0 5 -4 13 -10 16 -5
3 -10 2 -10 -4z"/>
<path d="M2161 1282 c-19 -9 -43 -30 -52 -47 -23 -39 -25 -159 -4 -208 26 -63
22 -72 -47 -97 -75 -28 -76 -29 -58 -40 18 -11 74 -3 112 16 15 8 31 13 35 13
17 -4 103 43 113 61 14 26 13 133 -2 148 -8 8 -9 18 -1 35 15 33 0 97 -28 120
-26 21 -26 21 -68 -1z m43 -54 c3 -13 7 -51 10 -85 6 -61 5 -63 -18 -63 -32 0
-48 22 -54 75 -3 31 0 52 12 70 20 31 44 32 50 3z"/>
<path d="M1210 1153 c0 -37 3 -41 43 -61 113 -56 118 -48 21 42 l-64 59 0 -40z"/>
<path d="M2415 1074 c-27 -18 -47 -42 -60 -72 -11 -25 -26 -51 -34 -59 -7 -8
-11 -16 -9 -19 6 -5 123 129 139 159 12 22 12 22 -36 -9z"/>
<path d="M1553 1067 c15 -13 10 -15 -54 -21 -89 -9 -111 -17 -133 -51 -20 -30
-15 -72 12 -103 14 -16 34 -20 117 -24 55 -2 109 -9 120 -15 19 -11 18 -13
-12 -23 -18 -7 -33 -15 -33 -19 0 -9 74 -31 105 -31 14 0 25 5 25 10 0 6 -21
10 -47 10 l-48 1 55 19 c30 11 56 20 57 20 2 0 3 10 3 22 0 17 -3 19 -12 10
-18 -18 -30 -14 -19 6 12 23 -1 87 -24 112 -9 10 -31 26 -48 35 -27 14 -28 16
-7 11 93 -18 105 -19 90 -3 -8 8 -37 19 -65 25 -27 6 -61 13 -75 17 -23 6 -24
5 -7 -8z m23 -70 c37 -32 27 -62 -17 -53 -18 3 -53 6 -80 6 -42 0 -49 3 -49
20 0 47 101 66 146 27z"/>
<path d="M1930 1030 c-8 -15 -8 -20 3 -20 14 0 37 19 37 32 0 16 -30 7 -40
-12z"/>
<path d="M2248 914 l-38 -34 36 4 c45 6 57 17 47 44 -8 20 -9 19 -45 -14z"/>
<path d="M1116 852 c-3 -2 18 -20 47 -38 57 -36 72 -36 39 -1 -22 23 -77 49
-86 39z"/>
<path d="M1845 806 c-16 -6 -35 -14 -41 -18 -5 -4 -35 -10 -65 -13 -80 -10
-86 -13 -61 -31 14 -10 22 -26 22 -45 0 -35 12 -36 134 -14 82 14 256 74 256
87 0 5 -29 8 -64 8 -39 0 -81 7 -108 18 -34 14 -49 16 -73 8z"/>
<path d="M1472 770 c10 -6 48 -13 85 -17 54 -4 66 -3 56 7 -6 7 -44 14 -85 17
-55 3 -69 1 -56 -7z"/>
</g>
</svg>
