<?xml version="1.0" standalone="no"?>
<!DOCTYPE svg PUBLIC "-//W3C//DTD SVG 20010904//EN"
 "http://www.w3.org/TR/2001/REC-SVG-20010904/DTD/svg10.dtd">
<svg version="1.0" xmlns="http://www.w3.org/2000/svg"
 width="128.000000pt" height="128.000000pt" viewBox="0 0 128.000000 128.000000"
 preserveAspectRatio="xMidYMid meet">

<g transform="translate(0.000000,128.000000) scale(0.100000,-0.100000)"
fill="#000000" stroke="none">
<path d="M254 707 c-13 -36 57 -139 184 -269 70 -72 83 -76 127 -39 20 16 20
16 3 -5 -10 -11 -18 -24 -18 -27 0 -13 28 -7 41 9 11 13 -9 36 -142 170 -165
166 -186 184 -195 161z"/>
<path d="M857 632 c-71 -72 -90 -97 -98 -131 -11 -48 -5 -64 19 -57 10 2 29 7
43 10 15 3 60 43 114 103 82 91 84 93 19 31 -88 -85 -119 -90 -38 -5 90 93 99
112 13 30 -80 -79 -118 -100 -53 -30 90 96 104 117 32 48 -43 -41 -81 -72 -85
-68 -4 4 26 41 67 82 41 41 70 75 65 75 -6 0 -50 -40 -98 -88z"/>
<path d="M722 438 c3 -7 13 -15 22 -16 12 -3 17 1 14 10 -3 7 -13 15 -22 16
-12 3 -17 -1 -14 -10z"/>
<path d="M650 365 c-59 -59 -62 -65 -39 -65 26 0 119 84 119 107 0 29 -21 18
-80 -42z"/>
<path d="M590 365 c-19 -23 -1 -39 21 -19 10 9 16 21 13 25 -8 13 -20 11 -34
-6z"/>
<path d="M988 350 c-45 -30 -90 -86 -103 -127 -4 -14 1 -32 11 -49 l18 -26 17
34 c24 47 68 88 102 95 23 5 28 10 23 27 -3 12 -6 33 -6 49 0 34 -6 34 -62 -3z"/>
<path d="M667 313 c-14 -13 -6 -23 19 -23 22 0 25 2 14 15 -14 16 -23 19 -33
8z"/>
<path d="M1041 164 c-22 -15 -48 -24 -72 -24 -42 0 -46 -6 -26 -35 12 -15 23
-17 74 -13 69 7 171 46 151 59 -7 5 -23 9 -34 9 -12 0 -27 7 -34 15 -16 19
-18 18 -59 -11z"/>
</g>
</svg>
